<?xml version="1.0" encoding="UTF-8"?><svg id="Layer_2" xmlns="http://www.w3.org/2000/svg" viewBox="0 0 301.8 288.62"><defs><style>.cls-1{fill:#f9f9f9;}.cls-2,.cls-3{stroke:#f8f6f4;stroke-linejoin:round;stroke-width:2px;}.cls-3{fill:#f8f6f4;}</style></defs><g id="Layer_1-2"><path class="cls-1" d="M150.9,144.31h0s0,0,0,0h0s0,0,0,0h0s0,0,0,0h0s0,0,0,0h0Z"/><path class="cls-2" d="M196.3,.3l-45.41,144.01m0,0l-45.41,144.01m45.41-144.01l47.85,143.18m-47.85-143.18L103.05,1.14m47.85,143.18L28.07,56.66m122.83,87.65l122.83,87.65m-122.83-87.65l150.89-1.35m-150.89,1.35L0,145.66m150.89-1.35L29.58,234.15m121.32-89.84l121.32-89.84m-60.38,2.76l-60.94,87.08m0,0l-60.94,87.08m60.94-87.08l1.83,106.27m-1.83-106.27l-1.83-106.27m1.83,106.27L86.99,59.44m63.91,84.87l63.9,84.87m-63.9-84.87l101.57,31.05m-101.57-31.05l-101.57-31.05m101.57,31.05l-100.44,34.62m100.44-34.62l100.44-34.62"/><path class="cls-3" d="M75.15,148.27c9.5,22.32,75.46,64.88,75.46,64.88,0,0,66.02-42.62,75.52-64.94,9.5-22.32-.94-48.09-23.33-57.56-18.9-8-40.27-1.82-52.18,13.73-11.92-15.51-33.26-21.66-52.14-13.67-22.38,9.47-32.83,35.24-23.33,57.56Z"/></g></svg>