<?xml version="1.0" encoding="UTF-8"?><svg id="Layer_2" xmlns="http://www.w3.org/2000/svg" viewBox="0 0 238.07 250"><defs><style>.cls-1{fill:#fff;stroke:#f8f6f4;stroke-miterlimit:10;}</style></defs><g id="Layer_1-2"><path class="cls-1" d="M119.04,0V125m0,0v125m0-125l73.47,101.13M119.04,125L45.56,23.87M119.04,125L.15,86.37m118.88,38.63l118.88,38.63m-118.88-38.63l118.88-38.63m-118.88,38.63L.15,163.63m118.88-38.63L45.56,226.13M119.04,125L192.51,23.87m-43.34,5.57l-30.13,95.56m0,0l-30.13,95.56m30.13-95.56l31.79,95.02m-31.79-95.02L87.24,29.98m31.79,95.02L37.47,66.82m81.57,58.18l81.57,58.18m-81.57-58.18l100.19-.88m-100.19,.88l-100.19,.87m100.19-.87l-80.54,59.6m80.54-59.6l80.54-59.6"/></g></svg>