<?xml version="1.0" encoding="UTF-8"?><svg id="Layer_2" xmlns="http://www.w3.org/2000/svg" viewBox="0 0 36.27 31.9"><defs><style>.cls-1{fill:#f7f5f3;}</style></defs><g id="Layer_2-2"><g id="Layer_1-2"><path class="cls-1" d="M33.45,3.34c-1.87-2.03-4.4-3.21-7.12-3.34h-.46c-2.97,0-5.78,1.28-7.74,3.46C16.18,1.29,13.39,0,10.43,0h-.04C7.59,0,4.97,1.12,3.01,3.16,.99,5.27-.1,8.16,0,11.09c.05,1.34,.32,2.55,.85,3.82,.33,.79,.75,1.57,1.3,2.4l1.67,2.5s.06,.09,.1,.13c2.46,3,4.84,5.36,7.73,7.63l4.74,3.73c.49,.39,1.11,.6,1.74,.6s1.25-.21,1.74-.6l4.74-3.73c2.65-2.09,5.66-4.46,7.89-7.68l1.51-2.09c.98-1.35,1.65-2.82,1.98-4.37,.18-.82,.26-1.67,.27-2.75,.03-2.73-.96-5.34-2.81-7.35h0Zm.91,9.76c-.29,1.35-.88,2.62-1.7,3.74l-1.52,2.1c-2.02,2.93-4.77,5.14-7.56,7.34l-4.74,3.73c-.42,.33-1.01,.33-1.42,0l-4.74-3.73c-2.79-2.2-5.11-4.49-7.47-7.37l-1.67-2.5c-.44-.67-.84-1.37-1.15-2.11-.43-1.03-.67-2.06-.72-3.25C1.48,5.99,5.38,1.65,10.43,1.66c2.94,0,5.54,1.48,7.11,3.72,.29,.42,.9,.41,1.2,0,1.65-2.34,4.41-3.84,7.52-3.7,4.74,.2,8.4,4.25,8.34,8.99,0,.94-.08,1.68-.24,2.42Z"/></g></g></svg>