<?xml version="1.0" encoding="UTF-8"?><svg id="Layer_2" xmlns="http://www.w3.org/2000/svg" viewBox="0 0 252 252"><defs><style>.cls-1{fill:none;stroke:#f8f6f4;stroke-linejoin:round;stroke-width:2px;}</style></defs><g id="Layer_1-2"><path class="cls-1" d="M211.94,96.01c52.07,0,52.07,59.87,0,59.87-24.61,0-46.26-11.31-67.04-29.7-3.27,2.82-6.54,5.79-9.82,8.89-3.15,2.98-6.24,6.12-9.21,9.42,18.62,20.87,30.02,42.68,30.02,67.44,0,52.07-59.87,52.07-59.87,0,0-25.25,13.06-48.79,29.86-67.44-2.82-3.16-5.81-6.3-8.94-9.42-3.08-3.07-6.3-6.1-9.65-9.04-20.83,18.49-42.54,29.85-67.22,29.85-52.07,0-52.07-59.87,0-59.87,25.42,0,48.34,13.47,67.22,30.03,3.24-2.87,6.45-5.92,9.65-9.12,3.18-3.18,6.21-6.38,9.07-9.6-18.55-20.84-29.98-42.57-29.98-67.27,0-52.07,59.87-52.07,59.87,0,0,24.7-11.38,46.43-29.89,67.27,2.86,3.22,5.9,6.41,9.08,9.6,3.26,3.26,6.53,6.35,9.82,9.26,21.14-18.22,42.35-30.18,67.04-30.18Z"/></g></svg>