<?xml version="1.0" encoding="UTF-8"?><svg id="Layer_2" xmlns="http://www.w3.org/2000/svg" viewBox="0 0 153 153"><defs><style>.cls-1{fill:#f7f5f3;}</style></defs><g id="Layer_2-2"><g id="Shapes"><g><path class="cls-1" d="M76.5,0C34.32,0,0,34.32,0,76.5s34.32,76.5,76.5,76.5,76.5-34.32,76.5-76.5S118.68,0,76.5,0Zm0,148.69c-39.81,0-72.19-32.38-72.19-72.19S36.69,4.31,76.5,4.31s72.19,32.38,72.19,72.19-32.38,72.19-72.19,72.19Z"/><path class="cls-1" d="M131.4,76.5c-1.17,0-2.1,.94-2.14,2.1-1.11,28.14-24.35,50.69-52.75,50.69s-51.65-22.55-52.76-50.69c-.05-1.17-.97-2.1-2.14-2.1s-2.21,1-2.17,2.21c1.17,30.47,26.31,54.89,57.06,54.89s55.9-24.43,57.06-54.89c.05-1.21-.95-2.21-2.17-2.21h0Z"/><path class="cls-1" d="M53.87,66.8c3.06,0,5.54-5.79,5.54-12.93s-2.48-12.93-5.54-12.93-5.54,5.79-5.54,12.93,2.48,12.93,5.54,12.93Z"/><path class="cls-1" d="M96.97,66.8c3.06,0,5.54-5.79,5.54-12.93s-2.48-12.93-5.54-12.93-5.54,5.79-5.54,12.93,2.48,12.93,5.54,12.93Z"/></g></g></g></svg>