<?xml version="1.0" encoding="UTF-8"?><svg id="Layer_2" xmlns="http://www.w3.org/2000/svg" viewBox="0 0 256.75 251.49"><defs><style>.cls-1{fill:#f8f6f4;stroke:#f8f6f4;stroke-miterlimit:10;}</style></defs><g id="Layer_1-2"><path class="cls-1" d="M251.5,.99l-7,9.18,11.45,1.47-4.45-10.65Zm-2.11,8.67c-4.63,17.94-23.46,34.34-51.62,46.28-28.09,11.91-65.22,19.27-105.95,19.27v2c40.95,0,78.35-7.39,106.73-19.43,28.32-12.01,47.91-28.75,52.78-47.62l-1.94-.5Zm-157.57,1.81c43.98,0,83.75,8.26,112.49,21.57,28.82,13.35,46.19,31.59,46.19,51.39h2c0-21.05-18.38-39.78-47.35-53.2-29.05-13.46-69.13-21.75-113.33-21.75v2ZM250.5,84.43c0,19.81-17.38,38.36-46.2,52.02-28.74,13.62-68.51,22.2-112.48,22.2v2c44.21,0,84.28-8.62,113.34-22.39,28.97-13.74,47.34-32.79,47.34-53.83h-2Zm-158.68-9.22c-24.86,0-47.31-3.67-63.52-9.57-8.11-2.95-14.6-6.44-19.05-10.27-4.45-3.83-6.75-7.9-6.75-12.04H.5c0,4.94,2.75,9.52,7.45,13.55,4.69,4.04,11.43,7.63,19.67,10.63,16.48,6,39.18,9.69,64.21,9.69v-2ZM2.5,43.34c0-4.14,2.3-8.21,6.75-12.04,4.45-3.83,10.94-7.32,19.05-10.27,16.21-5.9,38.67-9.57,63.52-9.57v-2c-25.03,0-47.73,3.69-64.21,9.69-8.24,3-14.97,6.59-19.67,10.63C3.25,33.83,.5,38.4,.5,43.34H2.5Zm89.32,51.57c43.98,0,83.75,8.26,112.49,21.57,28.82,13.35,46.19,31.59,46.19,51.39h2c0-21.05-18.38-39.78-47.35-53.2-29.05-13.46-69.13-21.75-113.33-21.75v2Zm158.68,72.96c0,19.81-17.38,38.36-46.2,52.02-28.74,13.62-68.51,22.2-112.48,22.2v2c44.21,0,84.28-8.62,113.34-22.39,28.97-13.74,47.34-32.79,47.34-53.83h-2Zm-158.68-9.22c-24.86,0-47.31-3.67-63.52-9.57-8.11-2.95-14.6-6.44-19.05-10.27-4.45-3.83-6.75-7.9-6.75-12.04H.5c0,4.94,2.75,9.52,7.45,13.55,4.69,4.04,11.43,7.63,19.67,10.63,16.48,6,39.18,9.69,64.21,9.69v-2ZM2.5,126.78c0-4.14,2.3-8.21,6.75-12.04,4.45-3.82,10.94-7.32,19.05-10.27,16.21-5.9,38.67-9.57,63.52-9.57v-2c-25.03,0-47.73,3.69-64.21,9.69-8.24,3-14.97,6.59-19.67,10.63-4.69,4.04-7.45,8.61-7.45,13.55h2Zm89.32,51.25c43.98,0,83.75,8.26,112.49,21.57,28.82,13.35,46.19,31.59,46.19,51.39h2c0-21.05-18.38-39.78-47.35-53.2-29.05-13.46-69.13-21.75-113.33-21.75v2Zm0,63.74c-24.86,0-47.31-3.67-63.52-9.57-8.11-2.95-14.6-6.44-19.05-10.27-4.45-3.83-6.75-7.9-6.75-12.04H.5c0,4.94,2.75,9.51,7.45,13.55,4.7,4.04,11.43,7.63,19.67,10.63,16.48,6,39.18,9.69,64.21,9.69v-2ZM2.5,209.9c0-4.14,2.3-8.21,6.75-12.04,4.45-3.83,10.94-7.32,19.05-10.27,16.21-5.9,38.67-9.57,63.52-9.57v-2c-25.03,0-47.73,3.69-64.21,9.69-8.24,3-14.97,6.59-19.67,10.63-4.69,4.04-7.45,8.61-7.45,13.55h2Z"/></g></svg>