<?xml version="1.0" encoding="UTF-8"?><svg id="Layer_2" xmlns="http://www.w3.org/2000/svg" viewBox="0 0 159 159"><defs><style>.cls-1{fill:#f7f5f3;}</style></defs><g id="Layer_2-2"><g id="Shapes"><path class="cls-1" d="M137.59,88.7l21.41-9.2-21.41-9.2,17.52-15.37-23.21-2.13,11.91-20.03-22.73,5.14,5.14-22.73-20.03,11.91-2.14-23.2-15.37,17.52L79.5,0l-9.2,21.41L54.93,3.89l-2.14,23.2-20.03-11.91,5.14,22.73-22.73-5.14,11.91,20.03-23.21,2.13,17.52,15.37L0,79.5l21.41,9.2L3.89,104.07l23.21,2.13-11.91,20.03,22.73-5.14-5.14,22.73,20.03-11.91,2.14,23.2,15.36-17.52,9.2,21.41,9.2-21.41,15.37,17.52,2.14-23.2,20.03,11.91-5.14-22.73,22.73,5.14-11.91-20.03,23.21-2.13-17.52-15.37h-.03Zm-42.29-40.52c2.31,0,4.18,4.37,4.18,9.76s-1.87,9.76-4.18,9.76-4.19-4.37-4.19-9.76,1.87-9.76,4.19-9.76Zm-32.54,0c2.31,0,4.18,4.37,4.18,9.76s-1.87,9.76-4.18,9.76-4.18-4.37-4.18-9.76,1.87-9.76,4.18-9.76Zm17.08,69.96c-23.22,0-42.2-18.44-43.08-41.44-.03-.91,.72-1.67,1.64-1.67s1.58,.71,1.62,1.59c.84,21.25,18.38,38.27,39.83,38.27s38.99-17.03,39.83-38.27c.03-.88,.73-1.59,1.62-1.59s1.67,.76,1.64,1.67c-.88,23-19.87,41.44-43.08,41.44h-.02Z"/></g></g></svg>