<?xml version="1.0" encoding="UTF-8"?><svg id="Layer_2" xmlns="http://www.w3.org/2000/svg" viewBox="0 0 143.99 145"><defs><style>.cls-1{fill:#f7f5f3;}</style></defs><g id="Layer_2-2"><g id="Shapes"><polygon id="_30" class="cls-1" points="143.99 63.28 142.8 56.54 72.42 72.34 136.49 39.22 133.07 33.28 72.34 72.21 121.22 19.16 115.97 14.76 72.22 72.1 100.01 5.54 93.57 3.2 72.07 72.05 75.42 0 68.57 0 71.92 72.05 50.42 3.2 43.98 5.54 71.76 72.1 28.02 14.76 22.77 19.16 71.64 72.21 10.92 33.28 7.49 39.22 71.57 72.34 1.19 56.54 0 63.28 71.54 72.5 0 81.72 1.19 88.46 71.57 72.66 7.49 105.78 10.92 111.72 71.64 72.79 22.77 125.83 28.02 130.24 71.76 72.9 43.98 139.46 50.42 141.8 71.92 72.95 68.57 145 75.42 145 72.07 72.95 93.57 141.8 100.01 139.46 72.22 72.9 115.97 130.24 121.22 125.83 72.34 72.79 133.07 111.72 136.49 105.78 72.42 72.66 142.8 88.46 143.99 81.72 72.45 72.5 143.99 63.28"/></g></g></svg>