<?xml version="1.0" encoding="UTF-8"?><svg id="Layer_2" xmlns="http://www.w3.org/2000/svg" viewBox="0 0 197.5 85"><defs><style>.cls-1{fill:#f7f5f3;}</style></defs><g id="Layer_2-2"><g id="Shapes"><path class="cls-1" d="M197.5,42.5c0-3.8-3.3-7.14-9.04-10,5.73-2.86,9.04-6.2,9.04-10C197.5,7.73,147.83,0,98.75,0S0,7.73,0,22.5c0,3.81,3.3,7.14,9.04,10C3.3,35.36,0,38.69,0,42.5s3.3,7.14,9.04,10C3.3,55.36,0,58.7,0,62.5c0,14.77,49.68,22.5,98.75,22.5s98.75-7.73,98.75-22.5c0-3.81-3.3-7.14-9.04-10,5.73-2.86,9.04-6.2,9.04-10ZM5,22.5C5,15.19,40.67,5,98.75,5s93.75,10.19,93.75,17.5c0,2.31-3.58,4.91-10.3,7.39-18.47-6.53-51.09-9.89-83.45-9.89S33.77,23.36,15.3,29.89c-6.72-2.48-10.3-5.08-10.3-7.39Zm168.7,30c-16.09,4.19-41.88,7.5-74.95,7.5s-58.86-3.31-74.95-7.5c16.09-4.19,41.88-7.5,74.95-7.5s58.86,3.31,74.95,7.5ZM23.8,32.5c16.09-4.19,41.88-7.5,74.95-7.5s58.86,3.31,74.95,7.5c-16.09,4.19-41.88,7.5-74.95,7.5s-58.86-3.31-74.95-7.5ZM5,42.5c0-2.31,3.58-4.91,10.3-7.39,9.23,3.26,21.99,5.73,36.49,7.39-14.5,1.66-27.26,4.13-36.49,7.39-6.72-2.48-10.3-5.08-10.3-7.39Zm187.5,20c0,7.31-35.67,17.5-93.75,17.5S5,69.81,5,62.5c0-2.31,3.58-4.91,10.3-7.39,18.47,6.53,51.09,9.89,83.45,9.89s64.98-3.36,83.45-9.89c6.72,2.48,10.3,5.08,10.3,7.39Zm-10.3-12.61c-9.23-3.26-21.99-5.73-36.49-7.39,14.5-1.66,27.26-4.13,36.49-7.39,6.72,2.48,10.3,5.08,10.3,7.39s-3.58,4.91-10.3,7.39Z"/></g></g></svg>