<?xml version="1.0" encoding="UTF-8"?><svg id="Layer_2" xmlns="http://www.w3.org/2000/svg" viewBox="0 0 59.81 61.42"><defs><style>.cls-1{fill:#f7f5f3;}</style></defs><g id="Layer_2-2"><g id="Layer_1-2"><path class="cls-1" d="M59.27,40.98c-3.96,9.04-12.99,15.36-23.49,15.36-14.18,0-25.76-11.69-25.63-25.87S21.71,5.08,35.78,5.08c10.5,0,19.53,6.32,23.49,15.36,.04,.1,.14,.17,.25,.17h0c.19,0,.33-.19,.27-.38C55.49,8.41,43.95-.03,30.64,0,13.25,.04-.73,14.7,.03,32.08c.72,16.32,14.18,29.34,30.68,29.34,13.28,0,24.79-8.43,29.08-20.22,.07-.18-.07-.38-.27-.38h0c-.11,0-.21,.07-.25,.17h0Z"/></g></g></svg>